<svg xmlns="http://www.w3.org/2000/svg" height="1024" preserveAspectRatio="none" style="display: block;" version="1.1" viewBox="0 0 2048 2048" width="1024">
<path d="M 0 0 L 2048 0 L 2048 2048 L 0 2048 L 0 0 z" fill="rgb(255,255,255)" transform="translate(0,0)"></path>
<path d="M 854.042 657.538 C 856.418 660.123 881.231 730.611 884.544 739.744 L 941.703 893.678 C 952.094 921.884 965.678 963.04 978.025 989.769 C 980.201 956.018 979.075 909.311 978.923 874.666 C 977.262 820.326 984.213 772.586 970.169 719.779 C 956.388 667.965 891.59 689.743 889.191 678.792 C 889.502 678.62 889.813 678.448 890.124 678.276 C 980.505 676.879 1072.39 677.497 1162.82 678.277 C 1182.97 678.451 1200.47 679.977 1216.85 681.533 C 1243.83 684.095 1273.46 691.569 1297 702.801 C 1335.78 721.944 1370.77 754.522 1384.66 796.24 C 1423.89 914.138 1339.01 1013.42 1221.16 1021.9 C 1212.54 1022.52 1173.28 1023.59 1168.11 1025.38 L 1168.52 1026 C 1175.39 1027.68 1185.5 1028.56 1192.74 1029.67 C 1299.23 1046.09 1364.28 1102.36 1393.29 1207.65 C 1404.28 1247.55 1414.27 1289.14 1438.15 1324.43 C 1458.55 1354.57 1489.48 1365.48 1524.74 1366.33 C 1531.07 1366.48 1547.21 1365.1 1551.29 1365.81 L 1551.67 1367.79 C 1546.25 1372.42 1479.75 1377.61 1469.22 1377.92 C 1457.76 1378.26 1446.29 1377.97 1434.87 1377.05 C 1367.75 1371.72 1317.18 1343.77 1292.26 1279.41 C 1264.96 1208.92 1280.88 1129.61 1229.59 1069.1 C 1227.26 1066.61 1224.85 1064.17 1222.38 1061.8 C 1182.43 1024 1128.7 1025.37 1077.97 1026.73 L 1078.25 1170.74 C 1078.34 1214.97 1076.65 1258.33 1085.7 1301.1 C 1097.97 1359.06 1138.27 1367.5 1190.14 1366.58 C 1192.88 1366.53 1193.3 1367.02 1194.93 1368.65 L 1194.65 1370.37 C 1192.58 1371.29 874.143 1372.33 870.062 1370.4 L 870.22 1368.62 C 871.951 1367.31 873.97 1366.62 876.092 1366.58 C 897.077 1366.13 917.351 1366.49 937.145 1358.12 C 952.854 1351.47 959.843 1340.1 966.202 1324.8 C 973.807 1306.51 979.029 1269.08 977.303 1249.39 C 976.461 1239.8 961.392 1202.59 957.031 1191.61 C 948.099 1169.11 938.921 1142.82 929.129 1120.98 C 917.542 1120.45 904.709 1120.5 893.084 1120.72 C 825.504 1122 756.299 1118.69 688.891 1121.43 C 681.531 1137.75 674.109 1159.95 667.822 1177.29 C 659.395 1200.54 649.531 1225.66 643.746 1249.48 C 639.547 1266.76 635.886 1290.74 637.278 1308.74 C 638.722 1327.41 643.472 1334.82 651.741 1346.68 C 670.138 1373.09 713.933 1363.31 720.228 1368.78 L 720.05 1371.3 C 717.67 1372.63 705.804 1371.94 702.351 1371.94 L 654.465 1371.97 L 553.796 1372.02 C 546.572 1372.02 501.661 1372.76 498.416 1370.2 L 498.671 1368.14 C 506.676 1364.4 526.345 1367.01 538.3 1362.3 C 603.542 1336.57 626.902 1270.98 649.237 1210.79 L 678.398 1131.64 L 798.605 806.312 L 832.708 713.372 C 838.329 697.984 847.261 671.913 854.042 657.538 z" fill="rgb(68,4,35)" transform="translate(0,0)"></path>
<path d="M 1142.6 682.475 C 1273.79 678.024 1296.87 829.418 1266.51 927.762 C 1255.07 964.809 1236.93 991.5 1202.28 1009.57 C 1170.11 1024.96 1114.48 1021.1 1078.06 1021.14 C 1078.36 941.166 1076.18 860.812 1079.02 780.903 C 1080.24 746.522 1078.89 707.911 1105.71 682.921 L 1142.6 682.475 z" fill="rgb(255,255,255)" transform="translate(0,0)"></path>
<path d="M 807.118 800.58 C 815.14 818.815 823.181 841.802 830.523 860.862 C 844.951 897.995 859.158 935.212 873.145 972.513 C 890.935 1020.19 910.81 1068.2 927.445 1116.32 C 888.131 1116.09 848.815 1116.07 809.5 1116.24 C 769.693 1116.58 729.884 1116.69 690.076 1116.55 C 708.118 1062.32 731.861 1004.14 751.593 950.169 C 763.438 917.362 775.455 884.617 787.644 851.936 C 793.384 836.471 800.623 815.242 807.118 800.58 z" fill="rgb(255,255,255)" transform="translate(0,0)"></path>
<metadata><recraft-signature>{"signed_by": "recraft", "signature_b64": "zrEUtk9TRH7sW5aYc/10cFWSEQpT0kr4GA51DPcYrAhSfvpXNg3crAzVBpNgiPk9RZJhhltkfEmNXWOve4yXAA==", "signing_algo": "Ed25519", "generation_timestamp": 1782244634, "identifier": "d6676804-316d-4c2d-9272-f4fcaa3224d0"}</recraft-signature></metadata></svg>